<?xml version="1.0" standalone="no"?>
<!DOCTYPE svg PUBLIC "-//W3C//DTD SVG 20010904//EN"
 "http://www.w3.org/TR/2001/REC-SVG-20010904/DTD/svg10.dtd">
<svg version="1.0" xmlns="http://www.w3.org/2000/svg"
 width="1200.000000pt" height="1200.000000pt" viewBox="0 0 1200.000000 1200.000000"
 preserveAspectRatio="xMidYMid meet">
<metadata>
Created by potrace 1.14, written by Peter Selinger 2001-2017
</metadata>
<g transform="translate(0.000000,1200.000000) scale(0.100000,-0.100000)"
fill="#000000" stroke="none">
<path d="M7104 10123 c-50 -24 -67 -65 -68 -157 l-1 -81 -1755 -1 c-965 0
-1783 -4 -1817 -8 -364 -41 -659 -335 -690 -686 -9 -94 -9 -6565 -1 -6640 29
-263 193 -497 429 -611 33 -16 92 -39 132 -52 l72 -22 2798 -3 2799 -2 37 21
c90 50 84 176 -11 225 -15 8 -30 14 -33 14 -3 0 -8 0 -13 0 -4 0 -7 234 -7
519 0 482 1 519 17 516 25 -5 91 47 103 81 7 20 11 1074 10 3294 l0 3266 -25
31 c-42 53 -64 56 -419 57 l-326 1 -5 85 c-6 96 -22 129 -75 154 -29 14 -100
16 -577 15 -469 0 -547 -2 -574 -16z m-73 -503 c1 -3 2 -214 3 -470 2 -518 1
-511 70 -544 62 -29 85 -22 337 104 l240 120 240 -120 c260 -129 286 -137 347
-100 62 38 62 41 62 550 0 361 3 460 13 461 16 1 432 1 473 0 l32 -1 0 -3104
0 -3104 -2588 0 -2588 0 0 3102 0 3101 32 5 c17 3 772 5 1679 5 906 0 1648 -2
1648 -5z m1686 -6787 l0 -323 -31 -1 c-17 0 -476 0 -1021 -1 -1108 0 -1047 4
-1084 -70 -33 -68 -12 -141 51 -174 29 -15 125 -16 1059 -16 l1026 0 0 -66 0
-67 -2591 1 c-1425 1 -2614 4 -2642 7 -216 22 -403 196 -450 418 -9 45 -6 164
6 214 44 178 185 325 362 379 25 7 87 14 139 15 51 1 94 3 95 4 2 1 1145 2
2541 2 l2540 0 0 -322z"/>
<path d="M6188 8455 c-2 -2 -37 -5 -78 -6 -132 -4 -396 -56 -505 -99 -11 -4
-42 -16 -70 -26 -158 -55 -371 -172 -524 -287 -113 -84 -330 -297 -383 -375
-17 -26 -34 -49 -38 -52 -20 -16 -132 -200 -176 -290 -70 -142 -151 -358 -167
-446 -2 -10 -9 -44 -15 -74 -30 -147 -35 -199 -37 -385 -2 -178 4 -259 29
-405 13 -79 52 -219 85 -311 37 -99 109 -266 131 -299 5 -8 29 -49 54 -90 39
-66 81 -127 145 -210 82 -106 242 -262 369 -358 153 -117 378 -240 532 -292
36 -12 74 -26 85 -31 30 -12 125 -38 125 -34 0 2 18 -2 39 -10 39 -13 78 -21
156 -31 22 -2 48 -7 57 -10 59 -18 375 -17 504 1 27 4 58 8 69 10 78 10 123
19 143 26 13 5 37 11 55 14 58 10 262 83 361 130 113 52 247 131 325 189 29
23 68 51 86 63 58 39 291 275 352 358 122 162 241 376 293 525 13 36 27 76 33
90 5 14 11 30 12 35 2 6 15 55 29 110 14 55 27 114 30 130 2 17 10 64 17 105
23 134 17 461 -11 605 -5 28 -11 62 -14 76 -9 55 -57 223 -81 283 -14 34 -25
66 -25 69 0 4 -18 45 -40 92 -22 47 -40 88 -40 91 0 12 -114 191 -181 284 -60
85 -234 273 -314 340 -322 271 -703 434 -1135 486 -51 6 -277 13 -282 9z m93
-692 c18 -36 134 -246 165 -299 l23 -42 -204 1 c-113 0 -205 4 -205 9 0 12
193 358 201 358 3 0 12 -12 20 -27z m-376 -65 c-25 -46 -69 -126 -97 -179
l-52 -97 -237 0 -238 0 62 52 c106 89 260 184 371 228 39 15 160 55 234 77 2
1 -17 -36 -43 -81z m979 -35 c103 -50 228 -133 300 -197 l49 -43 -236 0 -235
0 -58 106 c-32 58 -71 131 -87 161 -16 30 -34 59 -38 65 -5 5 -9 12 -9 16 0
14 225 -63 314 -108z m-1286 -502 c10 -1 7 -13 -11 -43 -13 -24 -44 -79 -67
-123 -24 -44 -63 -116 -88 -160 -25 -44 -56 -102 -70 -128 -29 -58 -14 -75
-147 168 -54 99 -108 196 -120 215 -51 81 -68 75 228 74 144 -1 268 -2 275 -3z
m1055 -76 c25 -44 61 -111 82 -150 21 -38 46 -83 55 -100 10 -16 33 -59 53
-95 34 -64 59 -110 144 -264 24 -43 43 -83 43 -89 0 -5 -41 -84 -91 -174 -50
-91 -102 -186 -116 -211 -14 -26 -38 -69 -53 -97 -15 -27 -42 -77 -60 -110
-18 -33 -48 -88 -67 -121 l-34 -62 -349 0 -350 0 -18 31 c-11 18 -36 64 -57
102 -21 39 -43 79 -50 90 -7 11 -30 54 -53 95 -22 41 -87 161 -144 266 l-105
192 33 58 c19 33 37 66 41 74 3 8 45 85 91 170 47 85 98 180 114 210 40 73 85
154 119 215 l28 50 350 0 350 0 44 -80z m807 75 c0 -3 -8 -18 -18 -35 -10 -16
-36 -61 -57 -100 -20 -38 -48 -88 -61 -110 -45 -79 -95 -171 -116 -213 -11
-24 -24 -40 -28 -35 -4 4 -24 37 -43 73 -19 36 -80 146 -134 245 l-98 180 277
0 c153 0 278 -2 278 -5z m175 -414 c13 -52 27 -118 30 -148 4 -29 9 -66 11
-83 5 -42 5 -254 0 -263 -2 -4 -7 -34 -11 -67 -3 -33 -11 -78 -16 -100 -5 -22
-12 -49 -14 -59 -2 -11 -12 -42 -21 -69 l-16 -49 -23 38 c-13 22 -34 59 -47
84 -43 80 -110 203 -151 275 -22 39 -40 75 -40 80 0 6 47 96 104 200 57 105
115 211 129 237 30 57 32 54 65 -76z m-2579 -122 c68 -125 124 -231 124 -236
0 -5 -58 -115 -130 -245 -96 -177 -131 -232 -136 -217 -3 10 -10 30 -15 44
-21 61 -41 164 -55 275 -11 89 -5 282 12 369 2 11 6 38 10 61 3 22 12 61 20
86 9 25 16 52 17 60 3 20 18 41 24 35 3 -3 61 -108 129 -232z m423 -768 c72
-131 131 -240 131 -242 0 -1 -124 -3 -275 -2 -151 0 -275 2 -275 4 0 2 13 28
29 57 17 28 47 84 68 122 142 262 178 324 184 312 4 -6 66 -119 138 -251z
m1757 167 c26 -49 56 -104 67 -123 11 -19 33 -60 50 -90 17 -30 47 -86 69
-123 21 -38 38 -70 38 -72 0 -2 -124 -3 -275 -3 -151 0 -275 3 -275 5 0 3 13
28 28 56 16 29 48 88 72 132 24 44 57 103 72 130 15 28 42 78 60 113 18 34 36
62 39 62 4 0 29 -39 55 -87z m-1490 -673 c6 0 46 -64 89 -142 43 -79 87 -158
97 -176 l18 -32 -28 6 c-152 37 -356 130 -478 219 -99 71 -157 122 -145 126 8
3 294 2 447 -1z m713 1 c11 -1 11 -5 -2 -19 -10 -10 -17 -22 -17 -25 0 -4 -28
-58 -63 -119 -34 -62 -73 -134 -87 -160 -27 -52 -35 -57 -43 -30 -4 9 -48 91
-100 182 l-93 165 30 5 c24 4 298 4 375 1z m711 -1 l64 0 -34 -30 c-156 -133
-383 -255 -558 -300 -24 -6 -51 -14 -60 -17 -16 -7 -6 13 142 279 20 37 44 68
53 70 9 2 86 2 172 1 86 -1 185 -2 221 -3z"/>
<path d="M3485 3010 c-39 -20 -75 -75 -75 -114 0 -38 30 -89 66 -113 26 -17
111 -18 1709 -17 1654 0 1681 0 1707 19 77 56 74 173 -5 220 -31 19 -68 20
-1702 20 -1465 0 -1674 -2 -1700 -15z"/>
<path d="M7293 3014 c-110 -38 -107 -212 5 -241 15 -4 239 -7 497 -7 519 -1
518 -1 556 61 42 67 20 145 -51 183 -34 18 -955 22 -1007 4z"/>
<path d="M3503 2502 c-31 -5 -71 -49 -84 -93 -16 -51 4 -105 50 -136 l34 -23
1354 0 c1518 0 1393 -6 1432 72 32 66 -1 153 -68 176 -24 8 -2666 12 -2718 4z"/>
</g>
</svg>
