<?xml version="1.0" standalone="no"?>
<!DOCTYPE svg PUBLIC "-//W3C//DTD SVG 20010904//EN"
 "http://www.w3.org/TR/2001/REC-SVG-20010904/DTD/svg10.dtd">
<svg version="1.0" xmlns="http://www.w3.org/2000/svg"
 width="1200.000000pt" height="1200.000000pt" viewBox="0 0 1200.000000 1200.000000"
 preserveAspectRatio="xMidYMid meet">
<metadata>
Created by potrace 1.14, written by Peter Selinger 2001-2017
</metadata>
<g transform="translate(0.000000,1200.000000) scale(0.100000,-0.100000)"
fill="#000000" stroke="none">
<path d="M4979 11475 c-204 -51 -845 -373 -1853 -933 -427 -237 -456 -251
-595 -291 -153 -44 -185 -81 -202 -229 -15 -130 -12 -1955 4 -2007 16 -56 81
-117 227 -214 258 -171 483 -262 975 -397 110 -30 205 -61 211 -69 6 -8 9 -26
6 -40 -5 -29 -19 -31 -170 -15 -406 44 -788 193 -1169 457 l-93 64 0 -1138 c0
-719 4 -1151 10 -1174 14 -51 52 -82 165 -134 388 -181 644 -255 949 -275 257
-17 318 -27 339 -51 44 -54 14 -64 -228 -75 -235 -10 -458 26 -724 118 -115
39 -370 150 -437 190 -69 41 -65 109 -62 -925 l3 -933 24 -35 c30 -44 80 -81
216 -164 254 -153 514 -261 834 -345 107 -28 202 -55 212 -61 11 -6 19 -21 19
-36 l0 -26 -122 7 c-355 21 -665 127 -1053 360 -75 45 -113 62 -120 55 -7 -7
-9 -270 -7 -807 5 -983 10 -1048 92 -1152 41 -52 195 -176 305 -245 233 -147
698 -343 985 -414 l126 -32 241 40 c260 43 420 59 1213 121 283 23 731 61 995
85 264 24 707 62 985 85 554 44 653 54 1030 105 140 19 399 50 574 70 371 41
371 41 441 145 56 82 84 160 95 269 5 47 14 673 20 1391 6 718 16 1379 22
1470 5 91 12 203 15 250 6 93 13 110 50 110 38 0 101 40 125 78 20 32 21 54
29 393 4 197 4 441 0 542 -11 233 -18 254 -122 329 l-72 53 7 510 c15 1138 25
2139 28 2640 l2 530 -24 49 c-26 55 -83 117 -129 141 -41 21 -161 45 -224 45
-29 -1 -81 -7 -117 -15 -126 -28 -165 -18 -295 69 -89 60 -320 177 -405 206
-52 18 -81 21 -143 18 -76 -5 -79 -4 -88 19 -5 13 -9 40 -9 59 0 33 -2 35
-102 85 -151 76 -255 120 -433 184 -209 75 -393 149 -699 279 -286 122 -339
140 -494 167 -154 26 -191 25 -270 -10 -103 -45 -106 -45 -115 14 -5 28 -11
60 -13 72 -7 37 -179 96 -475 163 -101 22 -199 49 -217 58 -18 9 -49 39 -70
66 -62 84 -124 106 -223 81z m461 -278 c85 -24 215 -59 288 -77 72 -19 132
-37 132 -42 0 -12 -55 -44 -434 -255 -323 -180 -403 -229 -392 -241 8 -8 207
92 496 250 398 217 371 204 387 182 8 -11 13 -34 11 -52 l-3 -33 -390 -180
c-214 -99 -443 -204 -507 -234 -64 -30 -142 -61 -172 -70 -31 -9 -58 -21 -61
-26 -8 -12 -35 -12 -35 1 0 6 8 13 18 17 9 3 25 13 34 21 10 8 59 37 110 63
61 31 85 48 70 49 -24 0 -713 -349 -1028 -521 -99 -54 -191 -111 -205 -126
-14 -15 -18 -24 -9 -21 8 3 40 13 70 23 30 10 127 51 215 92 88 41 282 128
430 193 547 238 1128 506 1395 641 230 117 291 134 440 125 123 -7 229 -38
449 -133 97 -41 230 -97 296 -125 270 -111 821 -350 839 -364 13 -9 16 -18 10
-23 -18 -18 -259 -71 -502 -111 -264 -44 -567 -106 -827 -171 -164 -41 -205
-56 -125 -46 25 4 122 11 215 17 342 21 475 32 710 60 132 16 332 38 445 50
113 11 245 27 293 36 107 18 158 11 282 -41 93 -38 277 -129 339 -168 l39 -24
-24 -16 c-18 -11 -70 -16 -213 -21 -266 -9 -457 -23 -711 -51 -319 -36 -435
-44 -772 -55 -165 -6 -386 -17 -490 -25 -103 -8 -361 -29 -573 -45 -212 -17
-502 -41 -645 -55 -432 -40 -499 -45 -782 -55 -301 -11 -445 -27 -603 -66
-164 -41 -207 -37 -419 35 -322 109 -594 232 -774 348 -38 24 -67 49 -65 56 4
11 423 240 1088 594 360 192 1184 613 1245 636 126 48 203 45 415 -16z m-760
-817 c0 -5 -5 -10 -11 -10 -5 0 -7 5 -4 10 3 6 8 10 11 10 2 0 4 -4 4 -10z
m3350 -125 c0 -29 -28 -46 -90 -56 -68 -11 -860 -99 -887 -99 -13 0 -13 3 -3
15 7 8 25 15 41 15 16 0 147 22 292 50 652 123 621 118 635 102 6 -9 12 -21
12 -27z m-1017 -162 c-7 -2 -21 -2 -30 0 -10 3 -4 5 12 5 17 0 24 -2 18 -5z
m1993 -1015 c-3 -227 -20 -2004 -37 -3948 -18 -1944 -33 -3536 -34 -3537 -1
-2 -181 -19 -401 -38 -3960 -351 -4072 -360 -4077 -354 -11 12 -46 5249 -47
6926 l0 933 25 16 c30 20 68 24 610 69 382 32 1145 101 3090 279 380 35 732
64 784 65 l94 1 -7 -412z m-5094 174 c41 -118 59 -897 56 -2337 -2 -808 1
-1181 9 -1230 8 -50 8 -164 1 -405 -8 -253 -7 -410 2 -642 11 -244 11 -405 1
-795 -6 -268 -11 -857 -11 -1308 0 -451 -5 -901 -11 -1000 -5 -99 -16 -293
-23 -431 -9 -169 -18 -258 -27 -275 -13 -23 -14 -21 -21 39 -62 537 -74 1147
-58 2957 6 743 14 2269 16 3392 3 1312 8 2052 14 2069 14 37 31 26 52 -34z
m-842 -462 c26 -14 40 -63 40 -142 0 -82 -17 -113 -69 -129 -54 -16 -88 1
-113 57 -15 36 -19 61 -16 107 4 52 9 64 36 88 34 31 86 38 122 19z m20 -2358
c21 -10 42 -32 53 -54 17 -34 17 -43 5 -105 -13 -64 -16 -69 -48 -80 -128 -44
-220 22 -208 149 7 71 47 108 116 108 26 0 63 -8 82 -18z m6480 -1064 c0 -277
-3 -527 -7 -557 l-6 -53 -68 4 c-131 7 -201 90 -208 246 -2 46 2 104 8 129 11
44 11 48 -17 82 -66 83 -68 117 -12 192 l40 53 0 96 c0 58 6 117 16 149 28 97
109 158 212 160 l42 1 0 -502z m-6480 -1203 c52 -27 76 -105 58 -187 -26 -124
-164 -132 -233 -14 -45 77 -27 173 38 201 42 19 101 19 137 0z m30 -2155 c25
-25 35 -51 44 -113 11 -70 -1 -127 -25 -127 -11 0 -46 -7 -78 -16 -70 -20
-104 -9 -134 44 -25 43 -27 131 -3 167 41 63 153 88 196 45z"/>
<path d="M8825 9308 c-22 -17 -75 -65 -118 -107 -237 -230 -339 -490 -281
-714 25 -96 107 -252 90 -172 -14 71 -18 203 -7 257 29 138 134 272 267 341
49 25 74 44 78 59 7 28 21 368 15 368 -3 0 -22 -14 -44 -32z"/>
<path d="M8540 9299 c-83 -8 -723 -58 -1535 -119 -1025 -78 -1847 -155 -2355
-222 l-95 -13 -3 -56 c-4 -85 6 -103 90 -143 118 -56 265 -103 569 -181 376
-97 484 -137 641 -237 213 -136 333 -371 300 -586 -35 -221 -180 -353 -638
-578 -126 -63 -268 -136 -315 -164 -203 -122 -289 -279 -245 -444 24 -86 49
-121 216 -296 124 -131 145 -150 156 -136 6 9 26 57 44 107 96 269 300 572
537 800 309 295 677 460 1116 500 238 22 488 -21 682 -118 174 -87 375 -260
375 -323 0 -17 -17 -11 -82 30 -153 95 -330 115 -623 69 -268 -42 -491 -160
-715 -380 -262 -257 -430 -540 -495 -834 -65 -296 -60 -487 19 -837 57 -250
100 -350 213 -503 204 -275 460 -450 759 -520 93 -22 271 -33 369 -22 204 21
457 149 580 292 116 136 76 -36 -45 -197 -100 -131 -293 -295 -467 -394 -220
-125 -511 -194 -819 -194 -223 0 -384 31 -565 109 -302 131 -568 381 -769 725
-33 56 -64 108 -69 116 -8 12 -44 -20 -183 -160 -184 -186 -255 -278 -318
-413 -52 -110 -63 -162 -58 -257 4 -71 9 -86 50 -157 59 -102 68 -132 68 -218
0 -66 -4 -81 -45 -164 -54 -106 -122 -184 -208 -239 -34 -22 -69 -47 -77 -57
-12 -15 -15 -65 -17 -272 -3 -288 -10 -263 92 -298 73 -25 390 -32 550 -12
106 13 131 14 220 0 260 -38 355 -72 429 -154 85 -95 96 -187 41 -344 -19 -55
-35 -116 -35 -135 0 -50 31 -108 83 -159 l46 -44 1358 112 c747 61 1377 114
1401 118 l42 5 -2 877 -3 876 -110 82 c-60 45 -129 103 -153 130 -128 143
-161 367 -102 683 44 234 18 280 -272 481 -178 124 -236 182 -287 289 -34 71
-36 81 -36 175 0 92 3 106 32 167 61 130 138 217 437 492 183 170 228 242 228
371 1 90 -13 138 -71 255 -80 159 -101 248 -81 346 18 87 47 135 174 297 182
230 239 328 266 461 14 71 7 133 -25 204 -33 73 -82 129 -203 235 -117 102
-160 160 -205 281 -39 105 -49 273 -22 376 38 147 135 297 323 503 l26 27 -50
-1 c-27 -1 -87 -5 -134 -10z m-581 -1049 c-34 -32 -49 -61 -49 -96 0 -22 -2
-24 -14 -14 -8 6 -20 28 -27 48 -14 44 -36 72 -57 72 -9 0 5 21 34 53 l49 52
45 -45 45 -45 -26 -25z m441 -648 c0 -28 -24 -55 -46 -50 -23 4 -30 33 -14 53
18 22 60 19 60 -3z m-650 -1593 c0 -4 -5 -11 -10 -14 -16 -10 -42 -65 -55
-115 l-11 -45 -28 45 c-16 25 -37 54 -48 66 -18 21 -18 22 12 78 16 32 30 65
30 73 0 8 22 -5 55 -33 30 -26 55 -51 55 -55z m-401 -311 c66 -143 93 -170
194 -202 25 -8 10 -33 -68 -116 -34 -37 -68 -77 -75 -89 -6 -13 -20 -69 -30
-125 -19 -108 -34 -156 -48 -156 -22 0 -40 41 -51 113 -6 43 -22 99 -35 125
-27 53 -98 124 -149 148 l-34 16 72 72 c78 77 123 152 151 255 10 34 19 61 21
61 2 0 26 -46 52 -102z m-577 -562 c-24 -26 -48 -57 -54 -71 -15 -34 -24 -31
-39 13 -15 47 -33 73 -60 88 -21 11 -20 12 25 63 25 28 46 57 46 64 0 6 28
-16 62 -50 l62 -62 -42 -45z m986 -364 c5 -33 -25 -64 -48 -52 -24 13 -29 30
-19 58 12 33 62 28 67 -6z m-2384 -968 c19 -18 20 -28 6 -55 -14 -24 -32 -24
-55 1 -17 18 -17 21 -1 45 19 29 29 31 50 9z m-19 -533 c41 -109 61 -140 109
-166 43 -23 44 -29 12 -51 -36 -23 -78 -96 -121 -207 -20 -53 -40 -99 -45
-102 -4 -2 -12 21 -19 53 -30 138 -66 204 -133 238 l-30 16 42 20 c64 32 78
60 115 232 11 49 20 75 26 69 6 -6 25 -51 44 -102z m513 55 c36 -34 39 -47 15
-67 -9 -8 -28 -39 -43 -71 l-27 -56 -46 64 -47 64 41 61 c45 66 41 66 107 5z
m1852 -167 c28 -51 -26 -103 -61 -60 -19 24 -16 48 9 69 23 18 40 15 52 -9z
m419 -210 c7 -16 31 -42 52 -56 l39 -26 -39 -37 c-21 -21 -46 -58 -56 -84 -10
-25 -21 -46 -25 -46 -13 0 -30 26 -36 58 -4 22 -17 38 -41 52 -19 11 -33 26
-30 33 4 13 109 135 117 136 3 1 11 -13 19 -30z m-1149 -175 c0 -33 -33 -49
-54 -25 -22 24 -20 37 6 55 26 19 48 5 48 -30z m604 -413 c30 -33 -7 -79 -46
-59 -33 16 -15 76 23 78 3 0 14 -9 23 -19z"/>
<path d="M8765 8846 c-129 -62 -215 -209 -215 -371 0 -93 22 -161 84 -253 56
-84 194 -252 207 -252 5 0 9 177 9 450 0 510 8 470 -85 426z"/>
<path d="M4556 8667 c-3 -12 -6 -52 -6 -88 l0 -67 48 -20 c157 -68 498 -123
751 -121 118 0 208 11 181 22 -32 12 -93 29 -340 92 -270 69 -461 129 -565
175 l-63 28 -6 -21z"/>
<path d="M4542 8393 c-9 -24 -9 -834 1 -1718 10 -789 9 -786 70 -878 21 -32
67 -74 134 -124 126 -92 201 -172 247 -266 96 -198 98 -406 5 -593 -53 -108
-136 -197 -301 -325 l-128 -100 0 -87 c0 -108 10 -222 20 -222 4 0 20 19 35
43 81 122 188 219 446 404 157 113 229 179 229 211 0 9 -14 91 -30 180 -16 90
-34 203 -40 250 -18 159 -8 459 22 656 l12 79 -45 38 c-24 20 -100 72 -168
115 -190 119 -263 200 -297 334 -41 160 29 323 222 515 155 155 296 243 575
360 183 78 291 148 397 259 99 106 125 156 130 255 9 171 -62 319 -198 409
-121 81 -207 96 -660 112 -332 12 -375 18 -533 71 -64 21 -122 39 -128 39 -5
0 -13 -8 -17 -17z m698 -287 c6 -8 10 -25 8 -38 -4 -33 -63 -39 -71 -8 -3 14
2 29 14 41 23 23 33 24 49 5z m559 -124 c22 -32 51 -66 66 -76 l26 -17 -41
-46 c-26 -30 -46 -67 -58 -107 l-18 -61 -39 73 c-21 40 -49 81 -62 92 l-24 18
24 24 c13 13 32 49 42 79 16 49 32 79 41 79 2 0 21 -26 43 -58z"/>
<path d="M5605 8370 c3 -5 8 -10 11 -10 2 0 4 5 4 10 0 6 -5 10 -11 10 -5 0
-7 -4 -4 -10z"/>
<path d="M8796 7440 c-27 -39 -100 -134 -163 -212 -197 -245 -223 -334 -149
-511 20 -48 52 -124 71 -170 103 -247 49 -436 -178 -620 -56 -45 -115 -97
-132 -115 -95 -106 -134 -260 -104 -404 37 -177 162 -300 425 -418 65 -29 149
-68 186 -87 37 -18 70 -33 73 -33 3 0 5 81 5 179 l0 180 -59 56 c-77 73 -105
135 -105 230 0 90 33 164 108 243 l55 57 11 820 c7 451 11 832 9 847 -4 25 -7
22 -53 -42z"/>
<path d="M4848 6653 c-26 -29 -50 -114 -49 -176 0 -149 112 -276 371 -425 103
-59 105 -60 108 -36 5 36 -50 104 -186 231 -135 127 -171 183 -196 305 -9 42
-16 86 -16 98 0 25 -12 26 -32 3z"/>
<path d="M4570 5105 l0 -636 77 53 c108 74 241 204 286 280 58 97 81 185 81
303 0 171 -57 305 -184 433 -59 59 -194 167 -241 193 -18 9 -19 -9 -19 -626z"/>
<path d="M8797 5665 c-41 -43 -57 -86 -57 -154 0 -72 22 -134 57 -156 13 -9
27 -15 29 -12 3 2 3 82 2 178 l-3 174 -28 -30z"/>
<path d="M8013 5571 c-90 -120 -114 -182 -114 -288 0 -74 36 -163 91 -226 18
-21 105 -90 193 -154 178 -129 273 -217 302 -278 28 -60 30 -119 10 -308 -24
-232 -16 -300 47 -364 24 -24 64 -57 89 -74 49 -31 166 -75 176 -66 10 10 22
886 13 918 -23 78 -84 121 -308 214 -206 86 -333 190 -400 324 l-37 75 -2 144
c0 79 -3 145 -5 147 -2 3 -27 -26 -55 -64z"/>
<path d="M5273 4602 c-6 -11 -67 -57 -135 -102 -392 -265 -548 -457 -548 -677
0 -81 9 -109 91 -298 86 -199 80 -287 -31 -425 -56 -71 -76 -120 -47 -120 20
0 134 79 163 113 15 18 41 61 58 97 29 60 31 73 31 170 l0 106 -42 69 c-54 90
-67 145 -60 248 7 105 34 191 94 295 77 133 127 193 266 323 140 129 181 177
175 203 -3 15 -5 14 -15 -2z"/>
<path d="M8520 3871 c0 -35 39 -108 85 -159 45 -49 131 -106 178 -117 26 -7
27 -6 27 38 0 65 -6 75 -64 104 -46 22 -80 46 -193 131 -33 24 -33 24 -33 3z"/>
<path d="M4580 3363 c0 -111 4 -204 9 -207 13 -8 37 24 62 79 41 92 23 221
-41 296 l-29 34 -1 -202z"/>
<path d="M4600 1799 l0 -481 33 6 c89 16 366 48 667 77 184 18 336 33 337 33
1 1 6 46 12 101 9 89 16 111 57 194 94 187 61 308 -103 383 -191 86 -309 109
-618 118 -216 6 -259 10 -315 28 -36 12 -66 22 -67 22 -2 0 -3 -217 -3 -481z"/>
<path d="M5585 2181 c124 -60 181 -125 211 -240 21 -86 14 -121 -51 -253 -64
-129 -72 -162 -51 -211 17 -42 23 -43 141 -26 71 11 88 20 65 34 -23 14 -63
112 -67 166 -5 46 0 76 23 146 33 104 38 214 11 276 -14 33 -27 43 -99 76 -79
37 -135 53 -223 65 -36 5 -31 2 40 -33z"/>
</g>
</svg>
